<?xml version="1.0" encoding="UTF-8"?><svg xmlns="http://www.w3.org/2000/svg" viewBox="0 0 569.67 103.24"><defs><style>.d{fill:#569f99;}.e{fill:#e7b141;}</style></defs><g id="a"/><g id="b"><g id="c"><path d="M36.87,90.23c7.71,0,11.69-2.41,16.15-6.99,2.29-2.29,5.66,.12,4.82,3.01-2.05,6.75-7.95,16.99-26.15,16.99-20.6,0-31.69-11.57-31.69-28.68v-10.72c0-16.39,10.36-28.2,30.61-28.2s29.28,8.32,29.28,36.75l-37.23,4.94c.12,10,3.73,12.89,14.22,12.89Zm1.81-26.51v-4.22c0-7.71-1.56-9.52-7.95-9.52s-8.07,2.17-8.07,9.52v6.51l16.03-2.29Z"/><path d="M94.48,88.3l4.82,2.29v8.32l-6.63,3.13h-18.56l-6.63-3.13v-8.32l4.82-2.29V51.43l-4.82-2.29v-9.4l7.83-3.13h14.1l4.1,9.4c4.22-7.35,9.4-10.36,19.52-10.36,15.06,0,19.4,10,19.4,27.24v25.42l4.34,2.29v8.32l-6.63,3.13h-18.08l-6.63-3.13v-8.32l4.82-2.29v-28.56c0-4.1-2.05-6.26-7.47-6.26-3.74,0-6.39,.84-8.32,2.05v32.78Z"/><path d="M144.37,63.84c0-17.23,10.48-27.72,28.56-27.72,9.28,0,12.29,3.86,13.98,3.86,1.2,0,1.81-1.2,2.29-3.38h7.83v23.14h-9.16c-1.45-5.18-4.82-9.88-10.72-9.88-6.75,0-10.12,2.65-10.12,10v18.8c0,7.35,3.25,11.45,11.57,11.45s10.72-2.53,14.1-5.9c2.77-2.77,6.38,.6,4.94,3.98-3.26,7.83-10.24,15.06-24.82,15.06-20.12,0-28.44-11.33-28.44-28.68v-10.72Z"/><path d="M264.51,59.62c-.48,3.5-5.42,8.44-12.89,8.44-6.14,0-11.21-3.13-11.21-9.28,0-4.82,2.65-6.26,2.65-7.47,0-.6-.48-1.45-1.93-1.45-5.66,0-9.16,4.82-9.16,12.65v25.79l6.26,2.29v8.32l-6.63,3.13h-20l-6.63-3.13v-8.32l4.82-2.29V51.43l-4.82-2.29v-9.4l7.83-3.13h14.1l3.5,7.95c2.41-4.94,8.07-8.92,15.78-8.92,10.85,0,16.87,6.27,15.67,15.91-.96,7.83,3.13,4.34,2.65,8.07Z"/><path d="M308.01,90.23c7.71,0,11.69-2.41,16.15-6.99,2.29-2.29,5.66,.12,4.82,3.01-2.05,6.75-7.95,16.99-26.15,16.99-20.6,0-31.69-11.57-31.69-28.68v-10.72c0-16.39,10.36-28.2,30.61-28.2s29.28,8.32,29.28,36.75l-37.24,4.94c.12,10,3.74,12.89,14.22,12.89Zm1.81-26.51v-4.22c0-7.71-1.57-9.52-7.95-9.52s-8.07,2.17-8.07,9.52v6.51l16.03-2.29Z"/><path d="M380.92,50.34l-4.82-2.29v-8.31l6.63-3.13h18.56l6.63,3.13v8.31l-4.82,2.29v36.87l4.82,2.29v9.4l-7.83,3.13h-14.1l-3.98-8.07c-4.22,6.99-8.8,9.28-19.64,9.28-15.06,0-19.4-10.24-19.4-27.47v-25.42l-4.34-2.29v-8.31l6.63-3.13h18.07l6.63,3.13v8.31l-4.82,2.29v29.64c0,4.1,2.53,6.27,7.95,6.27s7.83-2.17,7.83-6.27v-29.64Z"/><path d="M435.39,66.25c9.16-1.57,13.62-2.05,13.62-8.07v-4.1c0-3.73-1.45-4.58-5.42-4.58s-5.3,1.2-5.42,8.43c0,.84-1.69,.96-9.28,.96-9.04,0-10.84-.72-10.84-1.69,0-13.5,7.35-21.57,26.03-21.57,17.59,0,27.11,5.66,27.11,23.5v29.16l4.82,2.29v8.32l-6.87,3.13h-15.06l-3.98-6.75c-3.5,5.06-7.83,7.95-16.63,7.95-10.72,0-19.04-2.89-19.04-15.42v-4.34c0-12.41,11.69-15.66,20.97-17.23Zm6.14,9.4c-4.1,.84-5.42,2.41-5.42,6.51v1.69c0,3.38,1.93,5.06,5.66,5.06,2.77,0,4.82-.72,7.23-2.53v-13.62c-1.45,1.2-3.5,2.05-7.47,2.89Z"/><path d="M537.92,16.84h11.45v19.76h17.95v13.62h-17.95v28.56c0,8.32,1.56,11.69,6.38,11.69,3.98,0,6.39-1.08,8.92-3.62,2.53-2.53,6.75-.48,4.22,4.82-3.13,6.63-8.68,11.57-20.12,11.57-12.77,0-21.57-5.3-21.57-21.93v-31.09h-6.99v-13.62c7.59,0,15.18-3.86,17.72-19.76Z"/><polygon class="e" points="504.68 37.45 474.12 14.18 474.61 8.25 480.89 0 511.85 23.58 511.3 28.76 504.68 37.45"/><polygon class="d" points="486.65 37.43 481.34 36.36 473.3 29.33 499.39 1 504.06 .94 512.27 8.12 486.65 37.43"/></g></g></svg>