<?xml version="1.0" encoding="utf-8"?>
<!-- Generator: Adobe Illustrator 26.1.0, SVG Export Plug-In . SVG Version: 6.00 Build 0)  -->
<svg version="1.1" id="Capa_1" xmlns="http://www.w3.org/2000/svg" xmlns:xlink="http://www.w3.org/1999/xlink" x="0px" y="0px"
	 viewBox="0 0 640 480" style="enable-background:new 0 0 640 480;" xml:space="preserve">
<style type="text/css">
	.st0{fill:#E7B141;}
	.st1{fill:#569F99;}
	.st2{font-family:'MyriadPro-Bold';}
	.st3{font-size:12px;}
	.st4{fill:none;}
</style>
<path d="M68.2,199.3c7.7,0,11.7-2.4,16.1-7c2.3-2.3,5.7,0.1,4.8,3c-2,6.7-8,17-26.1,17c-20.6,0-31.7-11.6-31.7-28.7v-10.7
	c0-16.4,10.4-28.2,30.6-28.2c19.5,0,29.3,8.3,29.3,36.8L54,186.4C54.1,196.4,57.7,199.3,68.2,199.3z M70,172.8c0-2.2,0-4.2,0-4.2
	c0-7.7-1.6-9.5-8-9.5c-6.5,0-8.1,2.2-8.1,9.5v6.5L70,172.8z"/>
<path d="M125.8,197.4l4.8,2.3v8.3l-6.6,3.1h-18.6l-6.6-3.1v-8.3l4.8-2.3v-36.9l-4.8-2.3v-9.4l7.8-3.1h14.1l4.1,9.4
	c4.2-7.4,9.4-10.4,19.5-10.4c15.1,0,19.4,10,19.4,27.2v25.4l4.3,2.3v8.3l-6.6,3.1h-18.1l-6.6-3.1v-8.3l4.8-2.3v-28.6
	c0-4.1-2.1-6.3-7.5-6.3c-3.7,0-6.4,0.8-8.3,2V197.4z"/>
<path d="M175.7,172.9c0-17.2,10.5-27.7,28.6-27.7c9.3,0,12.3,3.9,14,3.9c1.2,0,1.8-1.2,2.3-3.4h7.8v23.1h-9.2
	c-1.4-5.2-4.8-9.9-10.7-9.9c-6.7,0-10.1,2.7-10.1,10v18.8c0,7.4,3.3,11.4,11.6,11.4c8.7,0,10.7-2.5,14.1-5.9c2.8-2.8,6.4,0.6,4.9,4
	c-3.3,7.8-10.2,15.1-24.8,15.1c-20.1,0-28.4-11.3-28.4-28.7V172.9z"/>
<path d="M295.8,168.7c-0.5,3.5-5.4,8.4-12.9,8.4c-6.1,0-11.2-3.1-11.2-9.3c0-4.8,2.7-6.3,2.7-7.5c0-0.6-0.5-1.4-1.9-1.4
	c-5.7,0-9.2,4.8-9.2,12.7v25.8l6.3,2.3v8.3l-6.6,3.1h-20l-6.6-3.1v-8.3l4.8-2.3v-36.9l-4.8-2.3v-9.4l7.8-3.1h14.1l3.5,8
	c2.4-4.9,8.1-8.9,15.8-8.9c10.8,0,16.9,6.3,15.7,15.9C292.2,168.4,296.3,165,295.8,168.7z"/>
<path d="M339.3,199.3c7.7,0,11.7-2.4,16.1-7c2.3-2.3,5.7,0.1,4.8,3c-2.1,6.7-8,17-26.2,17c-20.6,0-31.7-11.6-31.7-28.7v-10.7
	c0-16.4,10.4-28.2,30.6-28.2c19.5,0,29.3,8.3,29.3,36.8l-37.2,4.9C325.2,196.4,328.9,199.3,339.3,199.3z M341.2,172.8
	c0-2.2,0-4.2,0-4.2c0-7.7-1.6-9.5-8-9.5c-6.5,0-8.1,2.2-8.1,9.5v6.5L341.2,172.8z"/>
<path d="M412.3,159.4l-4.8-2.3v-8.3l6.6-3.1h18.6l6.6,3.1v8.3l-4.8,2.3v36.9l4.8,2.3v9.4l-7.8,3.1h-14.1l-4-8.1
	c-4.2,7-8.8,9.3-19.6,9.3c-15.1,0-19.4-10.2-19.4-27.5v-25.4l-4.3-2.3v-8.3l6.6-3.1h18.1l6.6,3.1v8.3l-4.8,2.3v29.6
	c0,4.1,2.5,6.3,8,6.3c5.4,0,7.8-2.2,7.8-6.3V159.4z"/>
<path d="M466.7,175.3c9.2-1.6,13.6-2,13.6-8.1v-4.1c0-3.7-1.4-4.6-5.4-4.6c-3.9,0-5.3,1.2-5.4,8.4c0,0.8-1.7,1-9.3,1
	c-9,0-10.8-0.7-10.8-1.7c0-13.5,7.3-21.6,26-21.6c17.6,0,27.1,5.7,27.1,23.5v29.2l4.8,2.3v8.3l-6.9,3.1h-15.1l-4-6.7
	c-3.5,5.1-7.8,8-16.6,8c-10.7,0-19-2.9-19-15.4v-4.3C445.8,180.1,457.4,176.9,466.7,175.3z M472.9,184.7c-4.1,0.8-5.4,2.4-5.4,6.5
	v1.7c0,3.4,1.9,5.1,5.7,5.1c2.8,0,4.8-0.7,7.2-2.5v-13.6C478.9,183,476.8,183.9,472.9,184.7z"/>
<path d="M569.3,125.9h11.4v19.8h18v13.6h-18v28.6c0,8.3,1.6,11.7,6.4,11.7c4,0,6.4-1.1,8.9-3.6c2.5-2.5,6.7-0.5,4.2,4.8
	c-3.1,6.6-8.7,11.6-20.1,11.6c-12.8,0-21.6-5.3-21.6-21.9v-31.1h-7v-13.6C559.1,145.7,566.7,141.8,569.3,125.9z"/>
<polygon class="st0" points="536,146.5 505.4,123.2 505.9,117.3 512.2,109.1 543.2,132.6 542.6,137.8 "/>
<polygon class="st1" points="518,146.5 512.7,145.4 504.6,138.4 530.7,110.1 535.4,110 543.6,117.2 "/>
<path class="st0" d="M94.5,374h-20c-6.9,0-12.5-5.6-12.5-12.5l0,0c0-6.9,5.6-12.5,12.5-12.5h20c6.9,0,12.5,5.6,12.5,12.5l0,0
	C107,368.4,101.4,374,94.5,374z"/>
<path class="st1" d="M94.5,407h-20c-6.9,0-12.5-5.6-12.5-12.5l0,0c0-6.9,5.6-12.5,12.5-12.5h20c6.9,0,12.5,5.6,12.5,12.5l0,0
	C107,401.4,101.4,407,94.5,407z"/>
<text transform="matrix(1 0 0 1 113.146 364.543)" class="st2 st3">#E7B141</text>
<rect x="113.1" y="388" class="st4" width="89.5" height="29.2"/>
<text transform="matrix(1 0 0 1 113.146 396.543)" class="st2 st3">#569F99</text>
</svg>
